HIERARCHY
ROOT Hips
{
    OFFSET 0.000000 0.000000 0.000000
    CHANNELS 6 Xposition Yposition Zposition Zrotation Xrotation Yrotation
    JOINT Spine
    {
        OFFSET -0.000000 0.084000 0.000000
        CHANNELS 3 Zrotation Xrotation Yrotation
        JOINT Spine1
        {
            OFFSET -0.000000 0.216247 0.000000
            CHANNELS 3 Zrotation Xrotation Yrotation
            JOINT Neck
            {
                OFFSET -0.000000 0.215359 0.019578
                CHANNELS 3 Zrotation Xrotation Yrotation
                JOINT Head
                {
                    OFFSET -0.000000 0.143414 -0.020488
                    CHANNELS 3 Zrotation Xrotation Yrotation
                    End Site
                    {
                        OFFSET -0.000000 0.204877 0.000000
                    }
                }
            }
            JOINT LeftShoulder
            {
                OFFSET 0.040109 0.191272 -0.003631
                CHANNELS 3 Zrotation Xrotation Yrotation
                JOINT LeftArm
                {
                    OFFSET 0.138349 0.000000 0.000000
                    CHANNELS 3 Zrotation Xrotation Yrotation
                    JOINT LeftForeArm
                    {
                        OFFSET 0.335349 0.000000 0.000000
                        CHANNELS 3 Zrotation Xrotation Yrotation
                        JOINT LeftHand
                        {
                            OFFSET 0.276368 0.000000 0.000000
                            CHANNELS 3 Zrotation Xrotation Yrotation
                            End Site
                            {
                                OFFSET 0.153658 0.000000 0.000000
                            }
                        }
                    }
                }
            }
            JOINT RightShoulder
            {
                OFFSET -0.041533 0.191272 -0.003631
                CHANNELS 3 Zrotation Xrotation Yrotation
                JOINT RightArm
                {
                    OFFSET -0.138349 0.000000 0.000000
                    CHANNELS 3 Zrotation Xrotation Yrotation
                    JOINT RightForeArm
                    {
                        OFFSET -0.335349 0.000000 0.000000
                        CHANNELS 3 Zrotation Xrotation Yrotation
                        JOINT RightHand
                        {
                            OFFSET -0.276368 0.000000 0.000000
                            CHANNELS 3 Zrotation Xrotation Yrotation
                            End Site
                            {
                                OFFSET -0.153658 0.000000 0.000000
                            }
                        }
                    }
                }
            }
        }
    }
    JOINT LeftUpLeg
    {
        OFFSET 0.102438 0.000000 0.000000
        CHANNELS 3 Zrotation Xrotation Yrotation
        JOINT LeftLeg
        {
            OFFSET -0.000000 -0.442852 0.000000
            CHANNELS 3 Zrotation Xrotation Yrotation
            JOINT LeftFoot
            {
                OFFSET -0.000000 -0.461647 0.000000
                CHANNELS 3 Zrotation Xrotation Yrotation
                JOINT LeftToeBase
                {
                    OFFSET -0.000000 -0.066585 0.153658
                    CHANNELS 3 Zrotation Xrotation Yrotation
                    End Site
                    {
                        OFFSET -0.000000 0.000000 0.040975
                    }
                }
            }
        }
    }
    JOINT RightUpLeg
    {
        OFFSET -0.102438 0.000000 0.000000
        CHANNELS 3 Zrotation Xrotation Yrotation
        JOINT RightLeg
        {
            OFFSET -0.000000 -0.442852 0.000000
            CHANNELS 3 Zrotation Xrotation Yrotation
            JOINT RightFoot
            {
                OFFSET -0.000000 -0.461647 0.000000
                CHANNELS 3 Zrotation Xrotation Yrotation
                JOINT RightToeBase
                {
                    OFFSET -0.000000 -0.066585 0.153658
                    CHANNELS 3 Zrotation Xrotation Yrotation
                    End Site
                    {
                        OFFSET -0.000000 0.000000 0.040975
                    }
                }
            }
        }
    }
}
MOTION
Frames:    7
Frame Time:    0.010000
-0.614327    0.961351    -0.007208    0.244335    -3.678332    0.501403    -1.971608    -6.513864    -4.925578    3.593806    2.659906    -1.686662    -4.023101    18.797234    1.620939    -1.382739    2.887559    1.426853    14.955482    -0.120109    3.816364    -13.739710    -4.086740    -3.430970    -4.869080    -2.474123    7.274581    3.525690    -2.312933    -4.817812    -15.208778    -4.638218    8.017081    17.271700    -7.074902    -2.359263    -0.077666    0.089952    -0.565749    0.998388    0.089239    -0.026486    4.675989    11.818176    -9.629186    -0.273276    -4.294090    6.097661    -7.761749    -10.194959    14.494247    0.000000    0.000000    0.000000    -2.782287    11.966248    -7.532297    -2.488330    -5.035952    -6.935389    2.406107    -7.038271    -11.836491    0.000000    0.000000    0.000000    
-0.614367    0.961351    -0.006973    0.250295    -3.677809    0.512661    -1.973958    -6.525656    -4.931608    3.591491    2.666135    -1.688698    -4.020248    18.799229    1.612721    -1.370339    2.895893    1.419899    14.961933    -0.119255    3.818537    -13.741368    -4.106125    -3.422441    -4.883039    -2.466155    7.290814    3.520820    -2.303199    -4.817897    -15.209201    -4.644142    8.021516    17.283865    -7.035752    -2.373411    -0.098063    0.062242    -0.550872    1.029488    0.062703    0.006491    4.671037    11.825270    -9.634254    -0.268953    -4.276187    6.071544    -7.640455    -10.212525    14.517096    0.000000    0.000000    0.000000    -2.781722    11.982356    -7.516514    -2.504929    -5.032444    -6.927082    2.346314    -7.015776    -11.839046    0.000000    0.000000    0.000000    
-0.614408    0.961350    -0.006738    0.256042    -3.676969    0.523877    -1.976471    -6.538038    -4.937977    3.589357    2.673115    -1.690863    -4.016583    18.796312    1.605134    -1.359109    2.911068    1.413659    14.969388    -0.119003    3.821265    -13.745316    -4.118521    -3.415200    -4.893446    -2.461325    7.308597    3.515054    -2.296684    -4.817408    -15.208954    -4.650788    8.026938    17.294073    -7.000580    -2.388490    -0.116451    0.037554    -0.535780    1.055061    0.037726    0.035526    4.667209    11.831339    -9.641367    -0.266243    -4.257535    6.049109    -7.527386    -10.230029    14.537910    0.000000    0.000000    0.000000    -2.781072    11.997796    -7.499356    -2.522594    -5.028100    -6.918101    2.302763    -7.001026    -11.842510    0.000000    0.000000    0.000000    
-0.614449    0.961348    -0.006499    0.262096    -3.676453    0.534165    -1.979294    -6.550785    -4.944118    3.586807    2.681038    -1.692977    -4.009243    18.781782    1.598614    -1.352590    2.943669    1.408812    14.979496    -0.119834    3.824053    -13.752724    -4.126482    -3.408252    -4.901255    -2.458003    7.327786    3.507144    -2.291680    -4.816724    -15.207657    -4.657850    8.034148    17.302301    -6.970117    -2.405061    -0.132770    0.014591    -0.519662    1.078638    0.016740    0.057438    4.664449    11.838005    -9.647197    -0.265885    -4.241651    6.040822    -7.463655    -10.241897    14.541643    0.000000    0.000000    0.000000    -2.781407    12.013273    -7.479864    -2.542496    -5.022571    -6.902808    2.275463    -6.992209    -11.846398    0.000000    0.000000    0.000000    
-0.614489    0.961344    -0.006259    0.268282    -3.676524    0.543100    -1.982111    -6.563433    -4.949699    3.583763    2.689676    -1.694906    -3.998197    18.754528    1.593153    -1.351023    2.995372    1.405166    14.991567    -0.122793    3.826581    -13.761874    -4.133908    -3.400780    -4.908453    -2.454236    7.348079    3.496609    -2.286137    -4.816688    -15.205660    -4.663949    8.042074    17.309175    -6.945628    -2.421242    -0.146835    0.000644    -0.502198    1.104258    -0.008482    0.070072    4.662280    11.845072    -9.648956    -0.268051    -4.227740    6.040356    -7.441086    -10.250311    14.534908    0.000000    0.000000    0.000000    -2.782972    12.028721    -7.459072    -2.560626    -5.015965    -6.888374    2.264390    -6.992128    -11.850400    0.000000    0.000000    0.000000    
-0.614530    0.961340    -0.006019    0.273816    -3.676808    0.550972    -1.984573    -6.575749    -4.954726    3.580707    2.698473    -1.696658    -3.983857    18.718754    1.587965    -1.354394    3.059390    1.401922    15.003402    -0.128428    3.828556    -13.770022    -4.139369    -3.392838    -4.915426    -2.450836    7.369269    3.481142    -2.280785    -4.819045    -15.203433    -4.667865    8.049129    17.315630    -6.928184    -2.435007    -0.159042    -0.021446    -0.483380    1.131094    -0.023638    0.071156    4.660598    11.850451    -9.651160    -0.272093    -4.210153    6.035953    -7.402569    -10.263454    14.537244    0.000000    0.000000    0.000000    -2.785000    12.043406    -7.439402    -2.568420    -5.009657    -6.896993    2.262522    -7.002532    -11.852997    0.000000    0.000000    0.000000    
-0.614570    0.961336    -0.005781    0.278937    -3.677158    0.557527    -1.986552    -6.587726    -4.958809    3.577311    2.707238    -1.698128    -3.968938    18.679602    1.582984    -1.359096    3.126844    1.398786    15.015062    -0.137268    3.829663    -13.777618    -4.138358    -3.383985    -4.920832    -2.450225    7.390585    3.458420    -2.278105    -4.825255    -15.201847    -4.668691    8.054333    17.323486    -6.917718    -2.445032    -0.170697    -0.041274    -0.463406    1.156987    -0.041245    0.059659    4.658718    11.853691    -9.656627    -0.276771    -4.187240    6.027810    -7.344844    -10.282278    14.549879    0.000000    0.000000    0.000000    -2.787999    12.057191    -7.422269    -2.561439    -5.005208    -6.942437    2.255513    -7.017110    -11.848411    0.000000    0.000000    0.000000    
